<?xml version="1.0" encoding="UTF-8" standalone="no"?>
<!-- Created with Inkscape (http://www.inkscape.org/) -->

<svg
   width="1024mm"
   height="1024mm"
   viewBox="0 0 1024 1024"
   version="1.1"
   id="svg1"
   xml:space="preserve"
   sodipodi:docname="logo.svg"
   inkscape:version="1.4.3 (0d15f75, 2025-12-25)"
   xmlns:inkscape="http://www.inkscape.org/namespaces/inkscape"
   xmlns:sodipodi="http://sodipodi.sourceforge.net/DTD/sodipodi-0.dtd"
   xmlns:xlink="http://www.w3.org/1999/xlink"
   xmlns="http://www.w3.org/2000/svg"
   xmlns:svg="http://www.w3.org/2000/svg"><sodipodi:namedview
     id="namedview2"
     pagecolor="#505050"
     bordercolor="#eeeeee"
     borderopacity="1"
     inkscape:showpageshadow="0"
     inkscape:pageopacity="0"
     inkscape:pagecheckerboard="0"
     inkscape:deskcolor="#505050"
     inkscape:document-units="mm"
     inkscape:zoom="0.16"
     inkscape:cx="1553.125"
     inkscape:cy="1825"
     inkscape:window-width="2046"
     inkscape:window-height="1233"
     inkscape:window-x="0"
     inkscape:window-y="25"
     inkscape:window-maximized="0"
     inkscape:current-layer="svg1" /><defs
     id="defs1"><linearGradient
       id="linearGradient74"><stop
         style="stop-color:#ffffff;stop-opacity:1;"
         offset="0"
         id="stop75" /><stop
         style="stop-color:#ffffff;stop-opacity:0;"
         offset="1"
         id="stop76" /></linearGradient><linearGradient
       id="linearGradient73"><stop
         style="stop-color:#ff9b00;stop-opacity:1;"
         offset="0"
         id="stop74" /><stop
         style="stop-color:#ea3100;stop-opacity:0.99607843;"
         offset="1"
         id="stop73" /></linearGradient><linearGradient
       id="linearGradient71"><stop
         style="stop-color:#fe5600;stop-opacity:1;"
         offset="0"
         id="stop71" /><stop
         style="stop-color:#ffe300;stop-opacity:0.99607843;"
         offset="1"
         id="stop72" /></linearGradient><color-profile
       name="Display-P3"
       xlink:href="file:///System/Library/ColorSync/Profiles/Display%20P3.icc"
       id="color-profile1" /><linearGradient
       xlink:href="#linearGradient71"
       id="linearGradient72"
       x1="197.28688"
       y1="820.29193"
       x2="776.37408"
       y2="431.57339"
       gradientUnits="userSpaceOnUse"
       spreadMethod="pad" /><radialGradient
       xlink:href="#linearGradient73"
       id="radialGradient74"
       cx="606.91095"
       cy="578.44116"
       fx="606.91095"
       fy="578.44116"
       r="318.65234"
       gradientTransform="matrix(1.4162169,0.05833727,-0.06011293,1.4593193,-171.66566,-281.14009)"
       gradientUnits="userSpaceOnUse" /><linearGradient
       xlink:href="#linearGradient74"
       id="linearGradient76"
       x1="342.86572"
       y1="317.24286"
       x2="512.68469"
       y2="24.482433"
       gradientUnits="userSpaceOnUse" /></defs><path
     style="display:inline;opacity:1;fill:url(#linearGradient72);fill-opacity:1;stroke:none;stroke-width:0.264583;stroke-opacity:1"
     d="m 511.99414,23.001953 c -18.5124,0 -37.76308,55.727989 -66.42383,107.830077 C 326.10931,347.99902 165.10942,447.24843 163.88672,656.79492 162.91752,822.89552 294.35224,978.53218 512,978.55859 729.64776,978.53218 861.08248,822.89552 860.11328,656.79492 858.89058,447.24843 697.89069,347.99902 578.42969,130.83203 549.76894,78.729942 530.51826,23.001953 512.00586,23.001953 c -0.002,0 -0.004,-2.2e-5 -0.006,0 -0.002,-2.2e-5 -0.004,0 -0.006,0 z"
     id="path71"
     inkscape:label="Base" /><path
     style="opacity:1;fill:url(#radialGradient74);stroke:none;stroke-width:0.264583;stroke-opacity:1"
     d="m 233.07227,496.43945 c 0,0 -40.86152,70.42434 -39.72461,154.46094 C 195.25773,792.08634 309.56838,942.35965 512,944.44336 714.43162,942.35965 828.74227,792.08634 830.65234,650.90039 831.78925,566.86379 790.92773,496.43945 790.92773,496.43945 807.97472,681.92603 710.93413,822.94502 512,823.99609 313.06587,822.94502 216.02528,681.92603 233.07227,496.43945 Z"
     id="path72"
     inkscape:label="Inside" /><path
     style="opacity:1;fill:url(#linearGradient76);fill-opacity:1;stroke:none;stroke-width:0.264583;stroke-opacity:1"
     d="M 484.1701,108.87182 C 473.8395,239.37873 439.80192,350.35117 401.75547,419.89597 363.75722,489.35265 315.26956,530.32895 284.0336,517.50984 252.79764,504.69073 269.76682,446.84195 313.31182,393.36686 372.33412,320.885 429.61309,233.37461 484.1701,108.87182 Z"
     id="path74"
     inkscape:label="Shine" /></svg>
